<?xml version="1.0" encoding="UTF-8"?>
<!DOCTYPE svg PUBLIC "-//W3C//DTD SVG 1.1//EN" "http://www.w3.org/Graphics/SVG/1.1/DTD/svg11.dtd">
<svg xmlns="http://www.w3.org/2000/svg" version="1.1" width="512px" height="512px" style="shape-rendering:geometricPrecision; text-rendering:geometricPrecision; image-rendering:optimizeQuality; fill-rule:evenodd; clip-rule:evenodd" xmlns:xlink="http://www.w3.org/1999/xlink">
<g><path style="opacity:0.986" fill="#010101" d="M -0.5,147.5 C -0.5,128.833 -0.5,110.167 -0.5,91.5C 0.316435,89.8564 1.64977,88.6897 3.5,88C 23.4972,87.5 43.4972,87.3334 63.5,87.5C 63.3334,72.8295 63.5001,58.1629 64,43.5C 64.5,41.6667 65.6667,40.5 67.5,40C 198.167,39.3333 328.833,39.3333 459.5,40C 461.333,40.5 462.5,41.6667 463,43.5C 463.667,62.1667 463.667,80.8333 463,99.5C 461.681,101.487 459.848,102.654 457.5,103C 438.17,103.5 418.836,103.667 399.5,103.5C 399.667,117.837 399.5,132.171 399,146.5C 398.535,147.931 397.701,149.097 396.5,150C 376.259,151.476 355.925,151.976 335.5,151.5C 335.667,165.837 335.5,180.171 335,194.5C 334.535,195.931 333.701,197.097 332.5,198C 312.259,199.476 291.925,199.976 271.5,199.5C 271.667,213.837 271.5,228.171 271,242.5C 270.535,243.931 269.701,245.097 268.5,246C 245.586,247.157 222.586,247.657 199.5,247.5C 176.414,247.657 153.414,247.157 130.5,246C 129.667,245.167 128.833,244.333 128,243.5C 127.5,228.837 127.333,214.17 127.5,199.5C 107.075,199.976 86.7413,199.476 66.5,198C 65.6667,197.167 64.8333,196.333 64,195.5C 63.5001,180.837 63.3334,166.17 63.5,151.5C 43.8305,151.667 24.1638,151.5 4.5,151C 2.67694,150.003 1.01027,148.836 -0.5,147.5 Z"/></g>
<g><path style="opacity:1" fill="#ffd064" d="M 191.5,71.5 C 191.5,76.8333 191.5,82.1667 191.5,87.5C 154.167,87.5 116.833,87.5 79.5,87.5C 79.5,76.8333 79.5,66.1667 79.5,55.5C 84.8333,55.5 90.1667,55.5 95.5,55.5C 95.9052,63.4098 99.9052,68.5764 107.5,71C 135.498,71.5 163.498,71.6666 191.5,71.5 Z"/></g>
<g><path style="opacity:1" fill="#fddd7b" d="M 191.5,71.5 C 163.498,71.6666 135.498,71.5 107.5,71C 99.9052,68.5764 95.9052,63.4098 95.5,55.5C 90.1667,55.5 84.8333,55.5 79.5,55.5C 79.5,66.1667 79.5,76.8333 79.5,87.5C 78.5054,76.6794 78.1721,65.6794 78.5,54.5C 116.167,54.5 153.833,54.5 191.5,54.5C 191.5,60.1667 191.5,65.8333 191.5,71.5 Z"/></g>
<g><path style="opacity:1" fill="#89b0e7" d="M 223.5,54.5 C 223.713,62.7606 227.713,68.2606 235.5,71C 263.498,71.5 291.498,71.6666 319.5,71.5C 319.5,65.8333 319.5,60.1667 319.5,54.5C 320.495,65.3206 320.828,76.3206 320.5,87.5C 282.5,87.5 244.5,87.5 206.5,87.5C 206.5,76.5 206.5,65.5 206.5,54.5C 212.167,54.5 217.833,54.5 223.5,54.5 Z"/></g>
<g><path style="opacity:1" fill="#a2cafd" d="M 223.5,54.5 C 255.5,54.5 287.5,54.5 319.5,54.5C 319.5,60.1667 319.5,65.8333 319.5,71.5C 291.498,71.6666 263.498,71.5 235.5,71C 227.713,68.2606 223.713,62.7606 223.5,54.5 Z"/></g>
<g><path style="opacity:1" fill="#94d5a3" d="M 351.5,54.5 C 352.267,62.7715 356.601,68.2715 364.5,71C 392.498,71.5 420.498,71.6666 448.5,71.5C 448.5,76.8333 448.5,82.1667 448.5,87.5C 410.833,87.5 373.167,87.5 335.5,87.5C 335.5,76.5 335.5,65.5 335.5,54.5C 340.833,54.5 346.167,54.5 351.5,54.5 Z"/></g>
<g><path style="opacity:1" fill="#b1e39e" d="M 351.5,54.5 C 383.833,54.5 416.167,54.5 448.5,54.5C 448.5,60.1667 448.5,65.8333 448.5,71.5C 420.498,71.6666 392.498,71.5 364.5,71C 356.601,68.2715 352.267,62.7715 351.5,54.5 Z"/></g>
<g><path style="opacity:1" fill="#b7585e" d="M 255.5,135.5 C 255.5,130.167 255.5,124.833 255.5,119.5C 255.5,114.167 255.5,108.833 255.5,103.5C 223.5,103.5 191.5,103.5 159.5,103.5C 154.167,103.5 148.833,103.5 143.5,103.5C 143.5,114.167 143.5,124.833 143.5,135.5C 142.505,124.679 142.172,113.679 142.5,102.5C 180.5,102.5 218.5,102.5 256.5,102.5C 256.828,113.679 256.495,124.679 255.5,135.5 Z"/></g>
<g><path style="opacity:1" fill="#a996ba" d="M 383.5,135.5 C 383.5,130.167 383.5,124.833 383.5,119.5C 383.5,114.167 383.5,108.833 383.5,103.5C 351.5,103.5 319.5,103.5 287.5,103.5C 282.167,103.5 276.833,103.5 271.5,103.5C 271.5,114.167 271.5,124.833 271.5,135.5C 270.505,124.679 270.172,113.679 270.5,102.5C 308.5,102.5 346.5,102.5 384.5,102.5C 384.828,113.679 384.495,124.679 383.5,135.5 Z"/></g>
<g><path style="opacity:1" fill="#94d4a2" d="M 127.5,103.5 C 95.5,103.5 63.5,103.5 31.5,103.5C 31.9052,111.41 35.9052,116.576 43.5,119C 71.498,119.5 99.498,119.667 127.5,119.5C 127.5,124.833 127.5,130.167 127.5,135.5C 89.8333,135.5 52.1667,135.5 14.5,135.5C 14.5,124.5 14.5,113.5 14.5,102.5C 52.337,102.168 90.0037,102.502 127.5,103.5 Z"/></g>
<g><path style="opacity:1" fill="#b2e49f" d="M 127.5,103.5 C 127.5,108.833 127.5,114.167 127.5,119.5C 99.498,119.667 71.498,119.5 43.5,119C 35.9052,116.576 31.9052,111.41 31.5,103.5C 63.5,103.5 95.5,103.5 127.5,103.5 Z"/></g>
<g><path style="opacity:1" fill="#e5646e" d="M 159.5,103.5 C 159.905,111.41 163.905,116.576 171.5,119C 199.498,119.5 227.498,119.667 255.5,119.5C 255.5,124.833 255.5,130.167 255.5,135.5C 218.167,135.5 180.833,135.5 143.5,135.5C 143.5,124.833 143.5,114.167 143.5,103.5C 148.833,103.5 154.167,103.5 159.5,103.5 Z"/></g>
<g><path style="opacity:1" fill="#fe7f85" d="M 159.5,103.5 C 191.5,103.5 223.5,103.5 255.5,103.5C 255.5,108.833 255.5,114.167 255.5,119.5C 227.498,119.667 199.498,119.5 171.5,119C 163.905,116.576 159.905,111.41 159.5,103.5 Z"/></g>
<g><path style="opacity:1" fill="#d5bcee" d="M 287.5,103.5 C 288.013,111.357 292.013,116.524 299.5,119C 327.498,119.5 355.498,119.667 383.5,119.5C 383.5,124.833 383.5,130.167 383.5,135.5C 358.831,135.333 334.164,135.5 309.5,136C 305.993,137.33 304.327,139.83 304.5,143.5C 298.5,143.5 292.5,143.5 286.5,143.5C 286.919,140.675 285.919,138.509 283.5,137C 279.637,135.646 275.637,135.146 271.5,135.5C 271.5,124.833 271.5,114.167 271.5,103.5C 276.833,103.5 282.167,103.5 287.5,103.5 Z"/></g>
<g><path style="opacity:1" fill="#e9d0fe" d="M 287.5,103.5 C 319.5,103.5 351.5,103.5 383.5,103.5C 383.5,108.833 383.5,114.167 383.5,119.5C 355.498,119.667 327.498,119.5 299.5,119C 292.013,116.524 288.013,111.357 287.5,103.5 Z"/></g>
<g><path style="opacity:1" fill="#fedf7c" d="M 286.5,143.5 C 292.5,143.5 298.5,143.5 304.5,143.5C 304.41,147.665 306.41,149.998 310.5,150.5C 313.287,151.477 316.287,151.81 319.5,151.5C 319.5,156.833 319.5,162.167 319.5,167.5C 291.498,167.667 263.498,167.5 235.5,167C 228.006,164.502 224.006,159.335 223.5,151.5C 242.674,151.83 261.674,151.497 280.5,150.5C 284.59,149.998 286.59,147.665 286.5,143.5 Z"/></g>
<g><path style="opacity:1" fill="#5d7595" d="M 191.5,183.5 C 154.004,184.498 116.337,184.832 78.5,184.5C 78.5,173.167 78.5,161.833 78.5,150.5C 116.5,150.5 154.5,150.5 192.5,150.5C 192.828,161.679 192.495,172.679 191.5,183.5 Z"/></g>
<g><path style="opacity:1" fill="#b39951" d="M 280.5,150.5 C 261.674,151.497 242.674,151.83 223.5,151.5C 218.167,151.5 212.833,151.5 207.5,151.5C 207.5,162.167 207.5,172.833 207.5,183.5C 207.167,183.5 206.833,183.5 206.5,183.5C 206.5,172.5 206.5,161.5 206.5,150.5C 231.167,150.5 255.833,150.5 280.5,150.5 Z"/></g>
<g><path style="opacity:1" fill="#8bb3ea" d="M 95.5,151.5 C 95.8289,159.001 99.4955,164.168 106.5,167C 134.831,167.5 163.165,167.667 191.5,167.5C 191.5,172.833 191.5,178.167 191.5,183.5C 154.167,183.5 116.833,183.5 79.5,183.5C 79.5,172.833 79.5,162.167 79.5,151.5C 84.8333,151.5 90.1667,151.5 95.5,151.5 Z"/></g>
<g><path style="opacity:1" fill="#a3cbfe" d="M 95.5,151.5 C 127.5,151.5 159.5,151.5 191.5,151.5C 191.5,156.833 191.5,162.167 191.5,167.5C 163.165,167.667 134.831,167.5 106.5,167C 99.4955,164.168 95.8289,159.001 95.5,151.5 Z"/></g>
<g><path style="opacity:1" fill="#ffd064" d="M 223.5,151.5 C 224.006,159.335 228.006,164.502 235.5,167C 263.498,167.5 291.498,167.667 319.5,167.5C 319.5,172.833 319.5,178.167 319.5,183.5C 282.167,183.5 244.833,183.5 207.5,183.5C 207.5,172.833 207.5,162.167 207.5,151.5C 212.833,151.5 218.167,151.5 223.5,151.5 Z"/></g>
<g><path style="opacity:1" fill="#897239" d="M 310.5,150.5 C 313.833,150.5 317.167,150.5 320.5,150.5C 320.5,161.833 320.5,173.167 320.5,184.5C 282.33,184.832 244.33,184.499 206.5,183.5C 206.833,183.5 207.167,183.5 207.5,183.5C 244.833,183.5 282.167,183.5 319.5,183.5C 319.5,178.167 319.5,172.833 319.5,167.5C 319.5,162.167 319.5,156.833 319.5,151.5C 316.287,151.81 313.287,151.477 310.5,150.5 Z"/></g>
<g><path style="opacity:1" fill="#698b63" d="M 255.5,198.5 C 255.5,198.833 255.5,199.167 255.5,199.5C 223.5,199.5 191.5,199.5 159.5,199.5C 154.167,199.5 148.833,199.5 143.5,199.5C 143.5,210.167 143.5,220.833 143.5,231.5C 143.167,231.5 142.833,231.5 142.5,231.5C 142.5,220.5 142.5,209.5 142.5,198.5C 180.167,198.5 217.833,198.5 255.5,198.5 Z"/></g>
<g><path style="opacity:1" fill="#95d6a3" d="M 159.5,199.5 C 159.829,207.001 163.496,212.168 170.5,215C 198.831,215.5 227.165,215.667 255.5,215.5C 255.5,220.833 255.5,226.167 255.5,231.5C 218.167,231.5 180.833,231.5 143.5,231.5C 143.5,220.833 143.5,210.167 143.5,199.5C 148.833,199.5 154.167,199.5 159.5,199.5 Z"/></g>
<g><path style="opacity:1" fill="#b2e49f" d="M 159.5,199.5 C 191.5,199.5 223.5,199.5 255.5,199.5C 255.5,204.833 255.5,210.167 255.5,215.5C 227.165,215.667 198.831,215.5 170.5,215C 163.496,212.168 159.829,207.001 159.5,199.5 Z"/></g>
<g><path style="opacity:1" fill="#47654d" d="M 255.5,198.5 C 256.495,209.654 256.828,220.988 256.5,232.5C 218.33,232.832 180.33,232.499 142.5,231.5C 142.833,231.5 143.167,231.5 143.5,231.5C 180.833,231.5 218.167,231.5 255.5,231.5C 255.5,226.167 255.5,220.833 255.5,215.5C 255.5,210.167 255.5,204.833 255.5,199.5C 255.5,199.167 255.5,198.833 255.5,198.5 Z"/></g>
<g><path style="opacity:0.95" fill="#010000" d="M 337.5,279.5 C 361.152,278.233 376.319,288.9 383,311.5C 385.841,336.347 375.341,352.18 351.5,359C 325.953,361.485 310.119,350.318 304,325.5C 302.751,300.96 313.918,285.627 337.5,279.5 Z"/></g>
<g><path style="opacity:1" fill="#fc7e84" d="M 361.5,335.5 C 339.112,334.448 328.112,322.781 328.5,300.5C 334.637,295.789 341.637,294.289 349.5,296C 361.153,299.49 367.487,307.324 368.5,319.5C 368.085,325.767 365.752,331.1 361.5,335.5 Z"/></g>
<g><path style="opacity:1" fill="#e0626b" d="M 328.5,300.5 C 328.112,322.781 339.112,334.448 361.5,335.5C 348.902,347.736 336.402,347.402 324,334.5C 318.049,324.485 318.049,314.485 324,304.5C 325.371,302.959 326.871,301.625 328.5,300.5 Z"/></g>
<g><path style="opacity:0.964" fill="#010100" d="M 511.5,427.5 C 511.5,440.833 511.5,454.167 511.5,467.5C 510.684,469.144 509.35,470.31 507.5,471C 451.5,471.667 395.5,471.667 339.5,471C 337.266,469.362 335.933,467.195 335.5,464.5C 336.053,461.413 337.72,458.913 340.5,457C 392.499,456.5 444.499,456.333 496.5,456.5C 496.5,450.833 496.5,445.167 496.5,439.5C 426.833,439.5 357.167,439.5 287.5,439.5C 287.5,445.167 287.5,450.833 287.5,456.5C 296.506,456.334 305.506,456.5 314.5,457C 317.278,458.713 318.945,461.213 319.5,464.5C 319.256,467.263 317.923,469.429 315.5,471C 302.167,471.667 288.833,471.667 275.5,471C 273.951,469.786 272.785,468.286 272,466.5C 271.333,453.833 271.333,441.167 272,428.5C 273.227,426.274 275.061,424.774 277.5,424C 353.5,423.333 429.5,423.333 505.5,424C 507.887,424.564 509.887,425.73 511.5,427.5 Z"/></g>
<g><path style="opacity:0.997" fill="#fddf7c" d="M 335.5,464.5 C 330.167,464.5 324.833,464.5 319.5,464.5C 318.945,461.213 317.278,458.713 314.5,457C 305.506,456.5 296.506,456.334 287.5,456.5C 287.5,450.833 287.5,445.167 287.5,439.5C 357.167,439.5 426.833,439.5 496.5,439.5C 496.5,445.167 496.5,450.833 496.5,456.5C 444.499,456.333 392.499,456.5 340.5,457C 337.72,458.913 336.053,461.413 335.5,464.5 Z"/></g>
</svg>
